<?xml version="1.0" standalone="no"?>
<!DOCTYPE svg PUBLIC "-//W3C//DTD SVG 20010904//EN"
 "http://www.w3.org/TR/2001/REC-SVG-20010904/DTD/svg10.dtd">
<svg version="1.0" xmlns="http://www.w3.org/2000/svg"
 width="792.000000pt" height="1280.000000pt" viewBox="0 0 792.000000 1280.000000"
 preserveAspectRatio="xMidYMid meet">
<metadata>
Created by potrace 1.15, written by Peter Selinger 2001-2017
</metadata>
<g transform="translate(0.000000,1280.000000) scale(0.100000,-0.100000)"
fill="#000000" stroke="none">
<path d="M3825 12639 c-113 -15 -212 -46 -330 -104 -128 -63 -216 -127 -308
-224 -142 -151 -215 -292 -278 -536 -11 -40 -14 -658 -16 -3125 l-3 -3075
-568 -730 -568 -730 -727 -3 -728 -2 3 -148 3 -147 800 0 800 0 493 633 492
633 0 -979 0 -979 -91 -89 c-158 -154 -286 -336 -369 -524 -276 -628 -147
-1359 326 -1846 682 -700 1801 -678 2452 49 598 668 562 1687 -82 2316 l-96
94 0 2356 0 2356 568 730 567 730 728 3 728 2 -3 148 -3 147 -800 0 -800 0
-492 -633 -493 -633 0 1625 c0 1052 -4 1660 -10 1725 -62 603 -600 1035 -1195
960z m377 -336 c116 -40 220 -107 305 -196 87 -92 133 -167 175 -288 l33 -94
3 -1898 2 -1897 -751 -968 c-414 -532 -756 -971 -761 -977 -4 -5 -7 1241 -6
2865 l3 2875 33 94 c42 121 88 196 175 288 81 85 186 154 288 190 109 38 144
42 284 39 113 -3 141 -7 217 -33z"/>
<path d="M760 6705 l-455 -455 915 0 915 0 -455 455 c-250 250 -457 455 -460
455 -3 0 -210 -205 -460 -455z"/>
<path d="M5896 7058 c55 -57 259 -263 452 -458 l351 -355 458 458 458 457
-910 0 -910 0 101 -102z"/>
</g>
</svg>
