<?xml version="1.0" standalone="no"?>
<!DOCTYPE svg PUBLIC "-//W3C//DTD SVG 20010904//EN"
 "http://www.w3.org/TR/2001/REC-SVG-20010904/DTD/svg10.dtd">
<svg version="1.0" xmlns="http://www.w3.org/2000/svg"
 width="1280.000000pt" height="939.000000pt" viewBox="0 0 1280.000000 939.000000"
 preserveAspectRatio="xMidYMid meet">
<metadata>
Created by potrace 1.15, written by Peter Selinger 2001-2017
</metadata>
<g transform="translate(0.000000,939.000000) scale(0.100000,-0.100000)"
fill="#000000" stroke="none">
<path d="M8145 9379 c-653 -67 -1227 -340 -1682 -800 -210 -213 -362 -422
-493 -679 -149 -294 -236 -580 -282 -920 -19 -143 -16 -527 6 -675 47 -325
125 -579 262 -854 141 -285 283 -480 519 -717 374 -375 808 -616 1320 -734
911 -208 1868 67 2533 729 243 241 453 549 579 846 152 359 223 703 223 1081
0 438 -90 826 -285 1219 -393 797 -1155 1351 -2041 1485 -160 24 -512 35 -659
19z"/>
<path d="M1132 9359 c-280 -42 -522 -261 -592 -535 -20 -76 -20 -127 -20
-3329 l0 -3252 -37 -26 c-72 -51 -205 -192 -265 -281 -73 -110 -107 -176 -146
-286 -54 -155 -67 -237 -66 -425 1 -156 4 -180 32 -288 58 -220 168 -412 327
-572 369 -369 915 -467 1390 -250 247 112 465 323 588 570 91 181 130 347 129
555 0 205 -41 380 -132 560 -73 145 -206 308 -325 400 l-55 42 -3 3267 c-2
3129 -3 3269 -21 3326 -92 304 -347 509 -657 528 -46 3 -112 1 -147 -4z"/>
<path d="M4971 5093 c-93 -33 -181 -160 -181 -262 0 -102 61 -207 151 -256 48
-27 63 -30 139 -30 69 0 93 5 127 23 142 75 199 244 130 384 -32 66 -92 120
-157 143 -54 19 -152 18 -209 -2z m197 -130 c97 -72 97 -214 0 -273 -73 -44
-154 -35 -207 25 -76 87 -50 213 54 261 40 19 119 12 153 -13z"/>
<path d="M3948 4860 c-167 -29 -291 -163 -350 -380 -21 -76 -23 -106 -22 -285
0 -175 3 -210 22 -280 47 -168 128 -286 237 -344 45 -24 60 -26 160 -26 98 0
116 3 167 27 111 52 196 166 237 318 67 247 49 559 -42 750 -41 87 -124 170
-197 197 -67 25 -149 34 -212 23z m141 -150 c68 -34 115 -105 148 -221 26 -94
26 -474 0 -569 -42 -147 -112 -232 -204 -246 -168 -25 -275 143 -290 456 -10
217 29 411 102 511 59 82 162 111 244 69z"/>
<path d="M2715 4808 c-8 -52 -75 -548 -75 -561 0 -9 41 -12 153 -12 184 -1
243 -18 317 -94 52 -53 72 -106 71 -194 0 -114 -67 -205 -181 -248 -74 -28
-216 -23 -305 10 -98 37 -91 38 -110 -21 -10 -29 -20 -58 -22 -64 -5 -14 76
-49 159 -69 85 -20 240 -19 309 1 134 40 237 124 291 239 39 85 49 201 24 291
-52 181 -212 284 -442 284 -84 0 -104 3 -104 14 0 22 39 289 45 304 3 9 63 12
250 12 l245 0 0 70 0 70 -310 0 -309 0 -6 -32z"/>
<path d="M5610 4530 c-221 -26 -379 -170 -425 -385 -19 -89 -19 -152 0 -240
21 -97 59 -171 124 -236 98 -97 211 -135 381 -126 96 5 203 27 223 47 5 4 3
35 -4 70 -11 56 -14 61 -33 55 -181 -58 -315 -45 -414 40 -25 22 -54 63 -74
103 -31 63 -33 72 -33 177 0 100 3 116 29 173 36 78 106 143 179 168 72 25
204 23 274 -4 l52 -20 16 54 c8 29 18 60 21 68 9 23 -82 48 -216 60 -19 2 -64
0 -100 -4z"/>
<path d="M4752 2954 c-469 -68 -881 -315 -1119 -669 -79 -118 -139 -255 -176
-405 -20 -82 -21 -111 -24 -963 l-4 -877 4686 0 4685 0 0 834 c0 539 -4 862
-11 912 -40 290 -205 581 -444 783 -244 207 -543 338 -878 386 -148 21 -6571
20 -6715 -1z"/>
</g>
</svg>
